<?xml version="1.0" standalone="no"?>
<!DOCTYPE svg PUBLIC "-//W3C//DTD SVG 20010904//EN"
 "http://www.w3.org/TR/2001/REC-SVG-20010904/DTD/svg10.dtd">
<svg version="1.0" xmlns="http://www.w3.org/2000/svg"
 width="1920.000000pt" height="1920.000000pt" viewBox="0 0 1920.000000 1920.000000"
 preserveAspectRatio="xMidYMid meet">
<metadata>
Created by potrace 1.14, written by Peter Selinger 2001-2017
</metadata>
<g transform="translate(0.000000,1920.000000) scale(0.100000,-0.100000)"
fill="#000000" stroke="none">
<path d="M15055 17146 c-196 -70 -454 -321 -685 -666 -56 -85 -189 -270 -194
-270 -1 0 -2 31 -3 68 -1 38 -4 80 -7 95 -4 15 -8 39 -11 55 -14 67 -49 148
-100 228 -151 236 -369 250 -488 32 -63 -115 -52 -236 30 -336 35 -43 134
-122 152 -122 5 0 11 -4 13 -8 4 -11 160 -76 229 -96 43 -12 58 -22 68 -42 11
-24 9 -32 -17 -73 -15 -25 -35 -57 -43 -70 -8 -14 -18 -30 -22 -35 -5 -6 -30
-48 -56 -94 l-48 -84 -35 74 c-44 92 -81 135 -166 192 -197 130 -367 104 -456
-70 -26 -52 -34 -135 -19 -187 14 -47 73 -118 123 -148 28 -17 105 -49 135
-56 50 -11 167 -8 241 7 l82 16 -68 -136 c-88 -176 -184 -374 -185 -380 0 -3
-5 -14 -11 -24 -10 -17 -15 -13 -49 40 -21 32 -62 83 -92 111 -143 137 -314
159 -461 60 -99 -66 -125 -171 -68 -272 36 -63 77 -101 144 -132 111 -52 232
-65 355 -40 37 8 67 11 67 8 0 -4 -11 -29 -24 -57 -13 -27 -34 -74 -46 -104
-13 -30 -35 -82 -50 -115 -15 -33 -47 -108 -70 -167 -30 -74 -47 -105 -57
-101 -7 3 -13 8 -13 13 0 4 -8 16 -17 27 -10 11 -43 48 -73 83 -30 34 -67 81
-81 104 -68 108 -224 214 -370 252 -72 19 -247 25 -324 11 -44 -7 -172 -31
-230 -43 -44 -8 -251 -77 -262 -86 -7 -6 -13 -8 -13 -4 0 11 -243 -117 -319
-169 -124 -83 -354 -325 -376 -395 -3 -11 -11 -20 -16 -20 -5 0 -9 -4 -9 -9 0
-5 -15 -36 -34 -68 -18 -32 -45 -79 -60 -105 l-26 -47 -43 18 c-88 38 -95 40
-155 48 -28 3 -64 -1 -100 -12 -48 -16 -62 -16 -101 -5 -90 25 -94 24 -224
-62 -48 -32 -91 -56 -96 -54 -15 9 -122 193 -132 227 -36 118 -38 137 -34 264
3 72 7 166 11 210 8 112 8 337 0 420 -10 99 -41 221 -77 307 -17 40 -33 81
-36 91 -3 9 -9 17 -14 17 -5 0 -9 5 -9 10 0 14 -67 104 -112 151 -114 120
-227 169 -403 173 -252 7 -540 -104 -770 -297 -77 -65 -114 -106 -176 -191
-41 -58 -61 -76 -122 -109 -87 -47 -144 -91 -218 -168 -31 -33 -59 -59 -62
-59 -2 0 -28 55 -57 123 -29 67 -62 145 -75 172 -68 153 -116 277 -112 289 5
11 18 13 59 8 75 -10 423 -9 483 1 177 29 269 156 223 309 -15 50 -86 121
-135 136 -111 32 -320 -29 -466 -136 -52 -39 -79 -67 -122 -128 -11 -15 -36
-45 -55 -66 l-35 -38 -58 137 c-32 76 -63 147 -68 158 -4 11 -24 55 -43 98
-30 66 -32 77 -18 78 9 0 76 2 147 3 253 5 422 55 527 159 50 49 74 93 83 158
16 109 -38 180 -142 184 -63 2 -181 -23 -230 -49 -18 -9 -33 -14 -33 -12 0 5
-163 -83 -170 -93 -3 -3 -21 -17 -40 -31 -51 -36 -87 -68 -155 -138 l-61 -63
-18 38 c-20 39 -19 33 -11 311 4 136 -36 263 -112 351 -52 61 -104 85 -172 78
-55 -5 -123 -30 -149 -54 -7 -7 -19 -16 -26 -20 -6 -5 -24 -24 -39 -44 -89
-119 -3 -311 228 -509 41 -35 125 -92 125 -85 0 3 11 -2 24 -10 13 -9 29 -14
36 -13 7 2 20 -16 30 -39 l18 -41 -111 1 c-150 1 -262 -18 -332 -56 -11 -6
-22 -12 -25 -12 -23 -3 -91 -64 -119 -106 -102 -156 41 -310 255 -274 114 20
160 58 300 247 l73 100 34 -74 c19 -40 65 -135 102 -211 36 -77 64 -141 61
-145 -3 -3 -38 -6 -78 -7 -165 -4 -293 -51 -381 -140 -89 -89 -134 -217 -102
-291 47 -107 201 -149 346 -95 98 37 144 90 261 301 11 19 23 39 28 43 4 5 35
-58 70 -140 35 -81 71 -166 81 -188 32 -73 56 -130 57 -138 1 -4 8 -20 17 -37
8 -16 15 -30 15 -32 0 -2 -42 -3 -93 -4 -257 -2 -528 -193 -530 -374 -1 -79
53 -154 133 -187 47 -19 156 -8 218 23 31 15 63 34 70 41 7 7 19 16 25 20 29
18 109 135 157 230 28 56 57 107 64 112 13 11 18 2 110 -201 14 -31 26 -59 26
-61 0 -3 20 -47 44 -98 24 -52 47 -112 51 -134 4 -22 9 -49 11 -60 2 -11 12
-51 23 -90 11 -38 18 -71 16 -73 -1 -2 -49 -5 -106 -7 -156 -5 -222 -20 -335
-76 -79 -38 -156 -119 -197 -206 -27 -57 -32 -80 -32 -143 0 -41 3 -82 8 -90
6 -12 -7 -21 -55 -40 -78 -31 -118 -30 -193 6 -90 43 -144 39 -236 -16 -87
-53 -119 -56 -196 -19 -32 16 -72 29 -90 29 -72 0 -144 -77 -159 -168 -6 -37
-14 -49 -48 -72 -23 -16 -51 -37 -62 -47 -24 -20 -64 -90 -64 -111 0 -21 -33
-49 -75 -62 -81 -26 -125 -52 -147 -89 -31 -49 -67 -81 -92 -81 -12 0 -46 12
-76 26 -76 35 -123 37 -187 9 -82 -37 -98 -78 -78 -200 5 -27 8 -58 8 -67 0
-10 -1 -29 -2 -41 -1 -23 -27 -53 -101 -121 -17 -16 -44 -54 -59 -85 -16 -31
-38 -67 -49 -81 l-20 -25 -144 74 c-322 166 -391 203 -578 303 -107 58 -409
212 -670 343 -261 131 -502 252 -535 270 -33 18 -96 52 -140 75 -44 24 -96 52
-115 63 -19 11 -60 34 -90 50 -30 17 -71 40 -90 52 -19 12 -60 36 -91 53 -54
30 -57 31 -73 13 -16 -17 -14 -20 28 -55 24 -20 62 -53 83 -74 22 -20 57 -52
79 -71 21 -19 73 -64 114 -101 196 -175 437 -384 519 -450 24 -19 51 -42 60
-50 14 -14 157 -133 201 -167 8 -6 49 -40 91 -75 96 -80 125 -104 317 -255 86
-68 164 -130 172 -136 23 -18 260 -190 300 -217 19 -13 37 -27 40 -30 3 -4 12
-9 20 -13 8 -4 80 -50 160 -104 122 -83 146 -102 148 -126 3 -26 1 -27 -25
-21 -15 4 -35 10 -44 15 -20 10 -130 35 -194 44 -212 29 -371 -37 -443 -186
-48 -98 -48 -232 -1 -384 20 -67 90 -214 113 -238 6 -7 28 -35 49 -62 21 -28
87 -101 147 -162 60 -62 116 -125 124 -140 7 -16 30 -77 51 -138 89 -264 157
-367 328 -496 77 -58 218 -146 335 -208 l23 -12 -23 -32 c-35 -50 -58 -62
-149 -72 -9 -1 -21 -5 -26 -8 -5 -4 -64 20 -129 52 -86 42 -123 65 -131 83
-16 37 -71 97 -103 113 -37 19 -77 23 -126 13 -47 -10 -2 -31 -554 256 -102
53 -279 144 -395 202 -115 58 -217 110 -225 114 -8 5 -238 119 -510 254 -272
135 -553 276 -625 314 -466 245 -704 366 -892 455 -68 31 -129 57 -136 57 -7
0 -18 5 -25 12 -10 9 -16 8 -29 -5 -17 -16 -12 -22 82 -110 54 -50 207 -199
339 -329 404 -397 486 -474 696 -658 9 -8 44 -39 77 -67 33 -29 73 -63 89 -75
16 -12 35 -29 43 -36 8 -7 45 -38 83 -69 l68 -56 -51 -51 c-93 -92 -161 -215
-173 -311 -18 -141 -6 -254 40 -393 8 -23 14 -45 14 -47 0 -3 -21 -3 -47 0
-27 3 -75 7 -108 11 -33 3 -71 7 -85 10 -14 2 -59 6 -100 10 -41 3 -91 7 -110
9 -19 2 -60 5 -92 6 l-56 2 29 47 c88 144 139 315 135 460 -3 108 -22 164 -75
217 -40 39 -73 51 -136 48 -102 -5 -207 -100 -230 -210 -4 -17 -9 -75 -12
-130 -4 -84 -2 -115 16 -180 12 -44 24 -87 28 -95 3 -8 7 -17 8 -20 1 -3 15
-33 32 -66 l30 -61 -260 3 c-143 2 -261 5 -263 6 -1 2 23 68 55 148 72 182 93
264 90 354 -4 116 -32 183 -103 241 -24 19 -53 38 -65 40 -12 2 -26 7 -33 11
-21 13 -75 5 -111 -16 -94 -56 -142 -189 -132 -365 3 -44 6 -87 8 -95 2 -8 7
-33 12 -55 8 -41 59 -186 76 -217 11 -21 12 -48 2 -49 -11 -2 -52 -5 -158 -13
-49 -4 -97 -9 -105 -11 -8 -2 -44 -7 -79 -10 -35 -3 -67 -7 -71 -10 -5 -3 -11
-1 -14 4 -4 5 -2 12 3 16 19 11 90 152 111 220 27 87 33 211 14 285 -17 64
-73 150 -123 188 -26 21 -46 27 -82 27 -64 0 -113 -40 -158 -129 -30 -58 -35
-77 -38 -154 -4 -137 23 -255 96 -417 l28 -61 -62 -12 c-34 -6 -69 -14 -77
-17 -8 -3 -25 4 -39 16 -64 56 -223 123 -316 135 -150 18 -240 6 -348 -44
-120 -57 -197 -143 -252 -282 -14 -34 -9 -117 10 -161 19 -47 64 -92 118 -119
85 -44 261 -34 321 17 9 8 22 16 30 17 18 4 64 31 166 98 83 54 171 132 237
210 26 31 37 36 83 39 28 2 52 2 52 0 0 -2 -14 -33 -31 -69 -49 -102 -59 -153
-55 -282 7 -212 78 -312 222 -312 86 0 157 58 203 164 16 38 20 65 17 130 -3
94 -23 147 -113 305 -56 99 -60 109 -40 111 6 0 39 7 72 15 88 22 125 27 272
34 l132 6 -47 -94 c-26 -52 -49 -101 -51 -109 -27 -104 -34 -149 -34 -230 -1
-213 75 -332 212 -334 101 0 183 67 215 176 33 109 -14 269 -143 486 -58 98
-51 102 174 97 99 -2 222 -5 273 -5 l93 -1 -20 -32 c-52 -86 -78 -147 -101
-237 -13 -48 -16 -186 -5 -219 3 -11 8 -29 10 -42 7 -36 46 -84 91 -113 64
-41 126 -50 194 -30 88 26 137 100 144 216 6 118 -32 234 -123 376 -23 34 -41
65 -41 68 0 7 278 -8 405 -21 125 -13 153 -16 183 -21 17 -3 32 -6 32 -8 0 -2
-19 -35 -42 -72 -178 -293 -196 -521 -53 -668 67 -69 139 -83 204 -40 99 65
157 236 131 386 -17 99 -29 135 -108 335 -21 50 -21 52 -2 48 10 -2 50 -7 87
-10 37 -4 75 -8 83 -10 8 -2 42 -7 75 -10 33 -4 85 -10 115 -16 30 -5 75 -11
100 -14 25 -3 56 -7 70 -10 14 -2 43 -7 65 -10 53 -7 87 -14 91 -17 1 -2 -12
-33 -30 -68 -28 -57 -51 -110 -62 -145 -28 -91 -36 -134 -39 -210 -5 -157 39
-255 153 -343 46 -35 113 -34 175 3 125 72 168 203 127 380 -17 74 -33 119
-104 293 l-25 64 42 -7 c23 -4 51 -9 62 -11 11 -3 36 -7 55 -10 19 -3 80 -15
135 -26 55 -10 111 -21 125 -23 14 -2 36 -7 50 -10 14 -3 39 -8 55 -11 17 -2
46 -9 65 -14 19 -5 49 -11 65 -13 17 -3 54 -11 83 -17 l53 -12 -24 -21 c-35
-31 -131 -176 -162 -243 -52 -115 -69 -224 -45 -301 17 -55 50 -120 71 -139
11 -10 19 -20 19 -24 0 -4 -132 -8 -292 -9 -471 -3 -707 -15 -988 -50 -135
-17 -163 -21 -190 -26 -14 -3 -68 -12 -120 -21 -52 -9 -104 -18 -115 -21 -11
-2 -31 -6 -45 -9 -14 -3 -29 -7 -35 -8 -5 -2 -28 -6 -50 -10 -22 -4 -78 -17
-125 -27 -78 -18 -86 -22 -88 -44 -2 -22 2 -25 36 -26 20 0 46 -2 57 -4 11 -1
48 -6 83 -9 35 -4 73 -9 85 -12 12 -3 40 -7 62 -9 22 -3 63 -9 90 -14 28 -6
66 -13 85 -15 44 -7 72 -12 190 -36 52 -10 106 -21 120 -24 14 -2 32 -7 40
-10 8 -3 29 -7 45 -10 17 -2 104 -21 195 -41 91 -20 174 -39 185 -41 11 -3 40
-9 65 -14 25 -5 77 -16 115 -24 39 -9 82 -18 98 -21 15 -3 37 -7 50 -10 35 -8
52 -11 247 -49 102 -19 196 -37 210 -40 14 -2 63 -11 110 -19 47 -9 99 -18
115 -20 17 -3 71 -12 120 -20 113 -20 150 -26 200 -33 22 -3 67 -10 100 -16
33 -5 69 -11 80 -13 77 -9 151 -19 155 -20 3 -1 34 -5 70 -9 36 -5 74 -10 85
-13 11 -2 38 -6 60 -8 53 -5 114 -13 145 -19 14 -2 56 -7 94 -11 38 -4 79 -9
90 -11 20 -3 44 -6 176 -20 30 -3 66 -8 80 -10 14 -2 51 -6 83 -9 95 -8 170
-15 207 -19 34 -4 134 -10 365 -22 60 -3 112 -7 114 -10 2 -2 -73 -4 -168 -4
-106 0 -170 -4 -166 -9 3 -6 8 -32 10 -58 3 -26 7 -55 10 -63 2 -8 7 -30 10
-47 3 -18 7 -45 10 -60 2 -16 7 -44 10 -63 3 -19 10 -60 15 -90 5 -30 12 -73
15 -95 3 -22 15 -94 26 -159 11 -65 17 -126 14 -134 -3 -9 -2 -18 3 -21 8 -5
32 -133 78 -413 2 -16 6 -40 8 -55 3 -16 12 -71 21 -123 9 -52 18 -106 20
-120 7 -51 30 -191 39 -240 3 -14 8 -43 11 -65 3 -22 8 -52 11 -66 l5 -27 95
2 94 1 5 -30 c5 -31 13 -94 21 -175 3 -25 7 -56 9 -69 5 -30 13 -92 20 -151 3
-25 7 -56 9 -70 4 -23 11 -79 22 -172 5 -43 7 -65 35 -278 11 -85 22 -175 24
-200 3 -25 7 -58 9 -75 10 -66 24 -175 31 -240 1 -16 8 -66 14 -110 6 -44 13
-100 16 -125 9 -78 14 -124 20 -165 6 -47 12 -91 19 -157 3 -26 8 -58 11 -70
2 -13 7 -46 9 -75 3 -28 7 -67 10 -85 3 -18 8 -55 11 -83 3 -27 7 -61 9 -75 3
-14 7 -52 11 -85 6 -62 11 -98 21 -162 3 -21 7 -58 10 -83 2 -25 6 -58 8 -75
3 -16 8 -57 12 -90 3 -33 8 -68 10 -79 2 -10 6 -44 10 -75 3 -31 8 -59 10 -62
2 -4 417 -6 923 -6 l919 0 43 60 c65 89 168 178 267 230 273 144 600 120 846
-62 55 -41 147 -136 185 -193 l25 -35 923 0 923 0 1 26 c0 14 2 35 4 46 2 11
8 61 15 110 6 50 13 104 16 120 2 17 6 50 9 75 3 25 7 61 10 80 2 19 7 58 10
85 9 78 23 191 29 220 2 11 7 54 12 95 4 41 8 77 9 80 1 3 5 37 9 75 5 39 9
77 11 85 1 8 6 42 9 75 4 33 9 71 11 85 7 47 15 105 20 160 3 30 7 66 10 80 2
14 7 43 9 65 3 22 7 58 10 80 3 22 8 65 11 95 4 30 8 66 10 80 5 33 20 150 30
230 2 19 7 53 10 75 5 40 10 82 20 165 2 25 7 61 10 80 3 19 7 55 10 80 3 25
8 65 10 90 3 25 8 59 10 75 5 33 14 99 20 155 8 72 15 126 20 150 4 21 14 109
20 174 2 26 23 32 98 29 62 -3 114 4 105 13 -3 2 -1 26 4 52 5 26 11 63 14 82
2 19 11 76 20 125 15 84 18 103 28 172 3 16 7 42 10 58 3 17 8 46 11 65 4 19
8 46 10 60 2 14 11 68 20 120 9 52 18 109 21 125 5 37 15 93 20 120 2 11 17
106 34 210 32 198 36 224 44 265 3 14 7 41 10 60 12 81 17 116 21 130 2 8 7
38 11 65 9 73 3 70 149 80 49 3 99 8 110 9 11 2 27 4 36 5 9 0 19 10 22 22 4
15 -1 22 -21 30 -15 5 -36 14 -47 19 -11 5 -75 32 -142 59 -68 28 -173 75
-234 105 l-112 54 39 6 c22 3 55 8 74 11 39 4 102 14 134 21 11 2 36 7 55 10
40 7 53 9 108 22 23 5 43 8 45 7 20 -18 574 -25 838 -10 74 4 223 8 330 9 170
0 238 -3 350 -18 14 -2 50 -6 80 -10 116 -16 170 -25 400 -72 14 -3 81 -19
150 -35 69 -17 132 -32 140 -34 33 -7 140 -38 228 -67 94 -30 122 -29 109 5
-6 16 -170 126 -272 182 -38 22 -92 51 -120 67 -27 15 -104 54 -170 86 -112
55 -146 71 -227 106 -18 8 -65 28 -105 45 -39 17 -74 31 -78 31 -4 0 -21 6
-38 14 -40 17 -99 40 -112 43 -5 1 -50 13 -100 27 -90 25 -225 53 -300 62 -22
3 -71 9 -110 14 -38 6 -95 12 -125 14 -30 3 -89 7 -130 11 -41 3 -104 8 -140
10 -168 10 -337 29 -347 38 -1 1 16 23 38 47 36 42 53 71 130 235 15 33 37 70
49 82 29 32 109 52 230 58 139 7 204 13 265 25 28 6 59 12 71 14 111 21 308
109 402 179 102 76 205 193 252 287 96 190 65 366 -91 519 -23 23 -40 41 -38
42 39 9 483 21 839 22 327 0 539 -10 753 -38 20 -3 54 -7 75 -10 20 -2 87 -11
147 -19 61 -8 133 -18 160 -21 28 -4 57 -8 65 -10 8 -3 42 -7 74 -11 33 -3 67
-7 75 -9 35 -6 99 -15 156 -20 33 -3 67 -8 75 -10 8 -2 46 -6 83 -10 37 -3 78
-8 90 -11 12 -2 56 -6 97 -9 41 -3 91 -7 110 -9 142 -17 558 -39 719 -39 110
1 130 6 131 35 0 7 -82 48 -95 48 -4 0 -98 45 -210 100 -113 55 -207 100 -211
100 -3 0 -18 9 -32 19 -15 10 -30 19 -35 20 -4 0 -190 92 -415 204 -438 219
-666 322 -860 393 -121 44 -343 105 -432 119 -25 4 -54 9 -65 12 -21 4 -41 7
-110 18 -22 3 -51 8 -65 11 -14 2 -43 7 -65 9 -22 3 -74 9 -115 15 -216 27
-460 42 -705 43 -158 0 -441 -10 -480 -17 -11 -2 -54 -7 -95 -11 -41 -3 -86
-8 -100 -10 -14 -2 -43 -6 -65 -9 -22 -3 -51 -8 -65 -11 -14 -3 -41 -8 -60
-11 -40 -7 -191 -44 -299 -73 -72 -19 -76 -19 -115 -2 -23 10 -57 24 -76 31
-70 27 -90 47 -90 93 l0 42 52 -4 c138 -9 250 87 250 216 0 24 2 43 4 40 3 -3
26 2 52 10 61 19 181 52 210 59 145 31 399 144 487 216 11 9 35 29 53 43 84
69 173 221 213 365 92 332 -19 584 -321 727 -73 35 -212 83 -311 108 l-67 17
36 32 c20 17 50 43 67 57 16 15 55 48 85 73 30 26 64 55 75 65 11 9 40 32 65
51 25 19 47 37 50 40 6 8 161 124 177 133 7 5 11 1 11 -10 0 -10 2 -36 5 -58
4 -22 11 -71 17 -110 18 -125 21 -139 53 -220 40 -104 105 -172 190 -199 155
-49 322 32 335 162 16 174 -202 434 -426 507 -28 10 -52 20 -52 24 1 3 20 19
43 36 23 16 67 47 97 69 123 88 442 298 446 294 2 -3 6 -43 9 -89 12 -197 30
-289 75 -379 49 -96 110 -135 215 -134 62 0 76 3 116 31 62 43 102 117 102
192 0 78 -16 129 -66 203 -38 57 -137 147 -163 148 -5 0 -15 5 -22 12 -6 6
-42 28 -78 48 -69 38 -77 48 -48 65 10 6 40 25 66 43 26 17 50 32 52 32 2 0
84 50 183 111 98 61 183 113 188 116 7 2 11 -39 10 -124 -1 -173 17 -271 62
-331 34 -45 96 -75 165 -78 49 -3 62 1 96 25 57 42 77 90 77 186 -1 115 -23
155 -152 283 -58 56 -109 102 -114 102 -25 0 -4 22 39 40 26 12 70 33 97 48
67 35 120 61 121 59 1 -1 5 -38 8 -82 11 -145 42 -225 103 -264 111 -72 223 3
229 154 4 90 -19 125 -128 196 -27 17 -48 32 -48 33 0 1 35 3 79 4 87 2 189
20 236 40 11 5 38 17 60 27 55 24 164 106 199 151 62 79 65 143 7 201 -52 52
-109 74 -189 74 -113 -1 -184 -23 -285 -91 -42 -28 -89 -51 -112 -54 -22 -4
-48 -9 -57 -12 -48 -15 -55 -12 -72 26 -40 90 -121 143 -193 125 -63 -15 -119
-117 -107 -194 3 -18 0 -28 -8 -28 -7 0 -42 -6 -78 -12 -89 -15 -84 -17 -120
39 -38 60 -103 126 -144 147 -117 60 -294 -74 -297 -226 -1 -40 -5 -51 -18
-52 -9 0 -23 -2 -31 -4 -8 -1 -64 -10 -125 -19 -60 -10 -126 -20 -145 -23 -19
-3 -44 -7 -55 -9 -11 -1 -20 -3 -20 -4 0 -1 -16 -3 -35 -6 -19 -2 -57 -8 -85
-14 -27 -5 -68 -12 -90 -15 -22 -3 -47 -7 -55 -10 -8 -2 -31 -6 -50 -9 -19 -3
-45 -8 -56 -10 -12 -2 -38 -7 -59 -10 -20 -4 -40 -8 -44 -11 -8 -4 -41 -11
-101 -21 -41 -7 -293 -70 -330 -83 -14 -5 -52 -17 -85 -26 -102 -29 -270 -89
-352 -126 -24 -10 -45 -19 -48 -19 -3 0 -54 -23 -113 -52 -166 -80 -290 -159
-432 -273 -14 -11 -114 -108 -223 -215 -109 -107 -199 -196 -201 -198 -1 -1
-3 18 -4 43 0 25 -6 56 -14 68 -9 13 -12 34 -8 52 7 36 -5 100 -25 127 -12 19
-10 23 27 52 69 52 92 117 75 210 -31 173 -194 250 -524 249 -57 0 -103 1
-103 2 0 1 17 40 39 86 53 117 68 183 75 329 3 47 11 101 20 120 8 19 15 30
16 23 0 -7 11 -36 24 -65 13 -29 31 -70 39 -90 51 -122 196 -289 290 -331 75
-35 91 -39 161 -39 137 -1 234 84 265 231 27 128 -21 235 -139 311 -98 62
-245 93 -498 104 -45 2 -85 6 -89 9 -7 8 82 226 240 590 17 39 47 34 80 -14
15 -21 27 -44 27 -49 0 -6 4 -10 8 -10 4 0 16 -14 26 -31 27 -45 172 -190 229
-227 108 -72 213 -97 317 -76 129 27 201 111 195 230 -3 58 -5 68 -30 114 -46
88 -197 180 -336 204 -116 20 -256 11 -393 -25 -30 -8 -42 -7 -52 3 -11 11 11
61 127 297 l140 285 33 -75 c54 -124 123 -213 216 -281 137 -100 303 -133 385
-76 127 87 69 344 -110 485 -96 76 -193 105 -336 102 -50 -1 -92 0 -94 3 -4 4
161 290 195 338 9 13 12 13 23 -4 72 -111 100 -149 152 -203 168 -181 386
-274 522 -222 15 6 28 9 28 7 1 -2 20 12 44 31 91 72 115 206 58 318 -93 181
-386 296 -628 246 -35 -7 -70 -12 -77 -11 -7 2 6 26 32 59 34 43 52 58 77 61
18 3 123 3 233 0 384 -9 471 0 594 59 173 84 296 295 297 509 0 155 -50 263
-146 313 -61 32 -158 33 -244 3z m-6832 -2540 l48 -7 -7 -72 c-5 -40 -8 -95
-8 -124 -1 -29 -4 -49 -7 -45 -3 4 -21 41 -39 82 -18 41 -44 98 -57 127 -28
64 -28 64 0 54 12 -4 44 -11 70 -15z m226 -1007 c23 -55 45 -116 48 -134 5
-31 3 -35 -22 -41 -57 -14 -216 -118 -260 -170 -25 -28 -90 -64 -119 -64 -18
0 -42 10 -59 24 l-29 25 43 21 c54 28 62 34 130 102 52 53 163 221 200 306 7
17 16 32 20 32 3 0 24 -45 48 -101z m4464 -344 c68 -107 196 -215 300 -254 31
-11 59 -21 62 -21 3 0 10 0 17 0 6 0 8 -3 5 -6 -4 -4 -46 -7 -95 -8 -88 -1
-89 -1 -144 -42 -41 -32 -64 -42 -92 -42 -27 0 -50 -10 -89 -40 -29 -21 -64
-43 -77 -47 -51 -15 -99 -49 -130 -91 -18 -23 -38 -40 -45 -38 -11 5 37 144
100 289 8 17 23 57 35 90 13 33 26 64 31 70 5 5 9 16 9 23 0 20 69 162 78 162
4 -1 20 -21 35 -45z m3442 -31 c-31 -24 -55 -35 -55 -26 0 5 15 16 33 25 41
20 47 20 22 1z m-3708 -307 c-45 -114 -87 -207 -93 -207 -6 0 -41 19 -78 43
l-67 43 68 72 c109 116 248 259 250 257 2 0 -34 -94 -80 -208z m3442 177 c17
-4 31 -10 31 -14 0 -5 -162 -115 -258 -175 -9 -5 -21 -14 -26 -18 -6 -4 -67
-48 -135 -96 l-125 -88 -22 61 c-12 33 -29 78 -38 99 l-16 37 27 11 c16 6 64
24 108 39 100 34 300 108 340 125 64 27 68 28 114 19z m-1036 -400 c52 -45
190 -120 237 -128 14 -3 26 -5 28 -7 4 -3 22 -6 44 -8 22 -1 22 -1 -2 -18 -14
-9 -30 -22 -36 -28 -7 -5 -26 -21 -44 -35 -17 -14 -41 -33 -53 -43 -12 -10
-44 -37 -71 -60 -54 -46 -140 -122 -168 -149 -10 -10 -20 -18 -22 -18 -3 0
-26 -20 -52 -45 -26 -24 -50 -42 -54 -40 -3 2 -33 7 -65 10 -33 4 -63 9 -66
11 -4 2 -10 19 -13 38 -26 140 -113 314 -195 394 l-40 39 147 37 c81 21 156
40 167 42 11 2 58 15 105 28 47 13 89 24 93 25 5 1 32 -19 60 -45z m-1078
-357 c24 -95 131 -227 224 -277 23 -12 21 -14 -73 -61 -53 -27 -109 -57 -124
-67 -15 -11 -58 -36 -97 -57 -38 -21 -77 -44 -85 -51 -8 -7 -35 -21 -60 -32
l-45 -19 -71 72 c-47 49 -89 81 -128 99 -31 14 -61 26 -66 26 -5 0 -20 4 -34
10 l-26 9 17 38 c10 21 32 59 50 84 18 26 33 52 33 58 0 6 26 28 58 48 31 21
59 41 62 44 3 3 46 27 95 54 50 27 108 58 130 70 22 12 43 23 47 24 4 1 22 8
40 16 31 13 33 12 36 -8 2 -12 10 -48 17 -80z m-1345 -308 c65 -66 167 -118
282 -146 43 -10 78 -22 78 -28 -1 -5 -7 -19 -16 -30 -14 -19 -15 -19 -62 7
-45 25 -125 45 -167 42 -83 -6 -135 -17 -212 -43 -48 -16 -88 -29 -89 -28 -1
1 2 27 7 57 5 30 10 87 10 125 1 57 7 82 32 136 l32 65 25 -50 c13 -28 49 -76
80 -107z m-6280 -4 c0 -2 -26 -21 -57 -41 -32 -20 -78 -56 -103 -80 -35 -33
-50 -42 -68 -38 -12 4 -22 9 -22 13 0 8 98 70 180 115 73 39 70 38 70 31z
m1813 -105 c11 -102 58 -219 140 -348 55 -88 43 -95 -74 -42 -146 65 -238 117
-293 166 -28 24 -54 44 -58 44 -13 0 -9 20 5 21 42 2 267 180 267 211 0 29 8
-3 13 -52z m-2439 -559 c89 -51 283 -149 342 -171 12 -5 39 -41 62 -83 69
-129 170 -228 325 -322 88 -53 108 -83 71 -103 -29 -15 -44 -42 -44 -77 l0
-26 -32 23 c-55 39 -93 80 -146 161 -29 43 -52 81 -52 84 0 3 -34 51 -75 108
-144 198 -264 299 -482 407 -57 27 -103 52 -103 54 0 15 47 -4 134 -55z
m-2033 -1720 c13 -10 96 -67 184 -127 l160 -109 -1 -110 c-1 -75 6 -144 20
-217 l21 -107 -30 4 c-16 2 -59 8 -95 14 -144 23 -199 31 -315 45 -32 4 -62 9
-65 11 -4 2 -33 6 -66 9 -82 7 -169 17 -171 20 -2 1 20 27 48 57 130 140 244
350 264 484 8 50 12 53 46 26z m755 -480 c21 -20 453 -241 500 -255 15 -4 23
-20 30 -56 10 -47 10 -50 -10 -46 -12 2 -79 16 -151 31 -71 15 -141 29 -155
31 -14 2 -36 7 -50 10 -14 3 -50 10 -80 15 -30 6 -80 14 -110 19 -30 6 -66 12
-80 15 -14 3 -41 8 -60 10 -88 13 -89 6 27 125 59 61 112 110 118 110 6 0 15
-4 21 -9z m9668 -236 c-64 -78 -94 -86 -344 -91 -91 -1 -180 -7 -199 -13 l-34
-11 28 30 c26 27 87 53 180 76 17 4 35 8 40 10 6 1 26 5 45 8 19 4 42 9 50 11
8 2 42 7 75 11 33 3 61 7 62 8 1 1 32 3 68 4 l67 3 -38 -46z m-8812 -163 c24
-11 67 -27 95 -37 64 -23 63 -30 -3 -15 -27 7 -58 13 -69 16 -152 30 -150 29
-132 50 14 17 49 13 109 -14z m-22 -103 c47 -11 109 -24 138 -31 l53 -11 -35
-36 c-63 -65 -70 -129 -21 -201 l24 -35 -25 -53 c-14 -29 -28 -74 -31 -100 -3
-26 -7 -53 -8 -61 -2 -15 8 -74 20 -124 l7 -26 -126 2 c-126 2 -146 8 -112 36
24 20 49 121 48 195 -1 87 -19 168 -76 329 -51 145 -49 160 16 145 24 -5 81
-18 128 -29z"/>
</g>
</svg>
